<svg width="24" height="24" viewBox="0 0 24 24" fill="none" xmlns="http://www.w3.org/2000/svg">
<path d="M12 0L22.3923 6V18L12 24L1.6077 18V6L12 0Z" fill="#5551FF"/>
<path opacity="0.25" d="M22.3923 6L1.5 18L12 24L22.3923 18V6Z" fill="url(#paint0_linear)"/>
<path fill-rule="evenodd" clip-rule="evenodd" d="M13.9632 18.8559C15.418 18.5665 16.7544 17.8522 17.8033 16.8033L15.682 14.682C14.8676 15.4963 13.7426 16 12.5 16C10.0147 16 8 13.9853 8 11.5C8 9.01472 10.0147 7 12.5 7C13.7426 7 14.8676 7.50368 15.682 8.31802L17.8033 6.1967C16.7544 5.14781 15.418 4.4335 13.9632 4.14411C12.5083 3.85472 11.0003 4.00325 9.62987 4.57091C8.25943 5.13856 7.08809 6.09986 6.26398 7.33323C5.43987 8.5666 5 10.0166 5 11.5C5 12.9834 5.43987 14.4334 6.26398 15.6668C7.08809 16.9001 8.25943 17.8614 9.62987 18.4291C11.0003 18.9968 12.5083 19.1453 13.9632 18.8559Z" fill="white"/>
<defs>
<linearGradient id="paint0_linear" x1="22.5" y1="6" x2="11.9462" y2="24" gradientUnits="userSpaceOnUse">
<stop stop-color="white"/>
<stop offset="1" stop-color="white" stop-opacity="0"/>
</linearGradient>
</defs>
</svg>
