<?xml version="1.0" encoding="UTF-8" standalone="no"?>
<svg
   xmlns:dc="http://purl.org/dc/elements/1.1/"
   xmlns:cc="http://creativecommons.org/ns#"
   xmlns:rdf="http://www.w3.org/1999/02/22-rdf-syntax-ns#"
   xmlns:svg="http://www.w3.org/2000/svg"
   xmlns="http://www.w3.org/2000/svg"
   xmlns:sodipodi="http://sodipodi.sourceforge.net/DTD/sodipodi-0.dtd"
   xmlns:inkscape="http://www.inkscape.org/namespaces/inkscape"
   width="100%"
   height="100%"
   viewBox="0 0 16 16"
   version="1.1"
   xml:space="preserve"
   style="fill-rule:evenodd;clip-rule:evenodd;stroke-linejoin:round;stroke-miterlimit:2;"
   id="svg12"
   sodipodi:docname="dropdown-icon.svg"
   inkscape:version="0.92.4 (5da689c313, 2019-01-14)"><metadata
   id="metadata18"><rdf:RDF><cc:Work
       rdf:about=""><dc:format>image/svg+xml</dc:format><dc:type
         rdf:resource="http://purl.org/dc/dcmitype/StillImage" /></cc:Work></rdf:RDF></metadata><defs
   id="defs16">
        
    
            
            
        
                
            </defs><sodipodi:namedview
   pagecolor="#ffffff"
   bordercolor="#666666"
   borderopacity="1"
   objecttolerance="10"
   gridtolerance="10"
   guidetolerance="10"
   inkscape:pageopacity="0"
   inkscape:pageshadow="2"
   inkscape:window-width="1920"
   inkscape:window-height="1027"
   id="namedview14"
   showgrid="false"
   inkscape:zoom="14.75"
   inkscape:cx="-8.7457627"
   inkscape:cy="8"
   inkscape:window-x="-8"
   inkscape:window-y="-8"
   inkscape:window-maximized="1"
   inkscape:current-layer="svg12" />
    <path
   inkscape:connector-curvature="0"
   id="path5"
   style="fill:#888888;fill-opacity:1"
   d="M 8,10.586 5.879,8.465 c -0.391,-0.391 -1.024,-0.391 -1.415,0 -0.39,0.39 -0.39,1.024 0,1.414 l 2.829,2.828 C 7.488,12.902 7.743,13 7.999,13 h 0.007 c 0.18,-0.002 0.359,-0.051 0.513,-0.145 0.068,-0.041 0.131,-0.091 0.188,-0.148 0,0 2.829,-2.828 2.829,-2.828 0.39,-0.39 0.39,-1.024 0,-1.414 -0.391,-0.391 -1.024,-0.391 -1.415,0 z M 13,4 C 13,3.448 12.552,3 12,3 H 4 C 3.448,3 3,3.448 3,4 3,4.552 3.448,5 4,5 h 8 c 0.552,0 1,-0.448 1,-1 z" />
</svg>