<?xml version="1.0" encoding="UTF-8" standalone="no"?>
<!DOCTYPE svg PUBLIC "-//W3C//DTD SVG 1.1//EN" "http://www.w3.org/Graphics/SVG/1.1/DTD/svg11.dtd">
<svg width="100%" height="100%" viewBox="0 0 16 16" version="1.1" xmlns="http://www.w3.org/2000/svg" xmlns:xlink="http://www.w3.org/1999/xlink" xml:space="preserve" xmlns:serif="http://www.serif.com/" style="fill-rule:evenodd;clip-rule:evenodd;stroke-linejoin:round;stroke-miterlimit:2;">
    <g transform="matrix(1,0,0,1,-70,-77)">
        <g id="GITHUB">
            <path id="circle" d="M75.471,92.591C75.871,92.664 76.017,92.417 76.017,92.205C76.017,92.016 76.01,91.512 76.006,90.845C73.781,91.328 73.312,89.772 73.312,89.772C72.948,88.849 72.423,88.603 72.423,88.603C71.697,88.106 72.478,88.116 72.478,88.116C73.281,88.173 73.703,88.94 73.703,88.94C74.417,90.163 75.576,89.81 76.032,89.605C76.105,89.088 76.311,88.736 76.54,88.536C74.763,88.334 72.896,87.647 72.896,84.582C72.896,83.709 73.207,82.995 73.719,82.435C73.637,82.233 73.362,81.42 73.797,80.318C73.797,80.318 74.469,80.103 75.997,81.138C76.635,80.961 77.32,80.872 78,80.869C78.679,80.872 79.364,80.961 80.003,81.138C81.53,80.103 82.201,80.318 82.201,80.318C82.637,81.42 82.363,82.233 82.28,82.435C82.793,82.995 83.103,83.709 83.103,84.582C83.103,87.655 81.232,88.331 79.45,88.529C79.737,88.776 79.993,89.265 79.993,90.011C79.993,91.08 79.983,91.943 79.983,92.205C79.983,92.419 80.126,92.667 80.53,92.591C79.735,92.856 78.884,93 78,93C77.116,93 76.266,92.856 75.471,92.591Z" style="fill:white;"/>
            <g id="octo" transform="matrix(0.491114,0,0,0.491114,77.9993,92.6685)">
                <path d="M0,-31.904C-8.995,-31.904 -16.288,-24.611 -16.288,-15.614C-16.288,-8.417 -11.621,-2.312 -5.148,-0.157C-4.333,-0.008 -4.036,-0.511 -4.036,-0.943C-4.036,-1.329 -4.05,-2.354 -4.058,-3.713C-8.589,-2.729 -9.545,-5.897 -9.545,-5.897C-10.286,-7.778 -11.354,-8.279 -11.354,-8.279C-12.833,-9.29 -11.242,-9.27 -11.242,-9.27C-9.607,-9.154 -8.747,-7.591 -8.747,-7.591C-7.294,-5.102 -4.934,-5.821 -4.006,-6.237C-3.858,-7.29 -3.438,-8.008 -2.972,-8.415C-6.589,-8.826 -10.392,-10.224 -10.392,-16.466C-10.392,-18.244 -9.757,-19.698 -8.715,-20.837C-8.883,-21.249 -9.442,-22.905 -8.556,-25.148C-8.556,-25.148 -7.188,-25.586 -4.076,-23.478C-2.777,-23.839 -1.383,-24.02 0.002,-24.026C1.385,-24.02 2.779,-23.839 4.08,-23.478C7.19,-25.586 8.555,-25.148 8.555,-25.148C9.444,-22.905 8.885,-21.249 8.717,-20.837C9.761,-19.698 10.392,-18.244 10.392,-16.466C10.392,-10.208 6.583,-8.831 2.954,-8.428C3.539,-7.925 4.06,-6.931 4.06,-5.411C4.06,-3.234 4.04,-1.477 4.04,-0.943C4.04,-0.507 4.333,0 5.16,-0.159C11.628,-2.318 16.291,-8.419 16.291,-15.614C16.291,-24.611 8.997,-31.904 0,-31.904" style="fill:rgb(24,23,23);"/>
            </g>
        </g>
    </g>
</svg>
