<?xml version="1.0" encoding="UTF-8" standalone="no"?>
<svg
   xmlns:dc="http://purl.org/dc/elements/1.1/"
   xmlns:cc="http://creativecommons.org/ns#"
   xmlns:rdf="http://www.w3.org/1999/02/22-rdf-syntax-ns#"
   xmlns:svg="http://www.w3.org/2000/svg"
   xmlns="http://www.w3.org/2000/svg"
   xmlns:sodipodi="http://sodipodi.sourceforge.net/DTD/sodipodi-0.dtd"
   xmlns:inkscape="http://www.inkscape.org/namespaces/inkscape"
   width="100%"
   height="100%"
   viewBox="0 0 16 16"
   version="1.1"
   xml:space="preserve"
   style="fill-rule:evenodd;clip-rule:evenodd;stroke-linejoin:round;stroke-miterlimit:2;"
   id="svg16"
   sodipodi:docname="info-icon.svg"
   inkscape:version="0.92.4 (5da689c313, 2019-01-14)"><metadata
   id="metadata22"><rdf:RDF><cc:Work
       rdf:about=""><dc:format>image/svg+xml</dc:format><dc:type
         rdf:resource="http://purl.org/dc/dcmitype/StillImage" /><dc:title></dc:title></cc:Work></rdf:RDF></metadata><defs
   id="defs20">
        
    
            
            
            
        
                
            </defs><sodipodi:namedview
   pagecolor="#ffffff"
   bordercolor="#666666"
   borderopacity="1"
   objecttolerance="10"
   gridtolerance="10"
   guidetolerance="10"
   inkscape:pageopacity="0"
   inkscape:pageshadow="2"
   inkscape:window-width="1920"
   inkscape:window-height="1027"
   id="namedview18"
   showgrid="false"
   inkscape:zoom="14.75"
   inkscape:cx="8"
   inkscape:cy="8"
   inkscape:window-x="-8"
   inkscape:window-y="-8"
   inkscape:window-maximized="1"
   inkscape:current-layer="svg16"
   showborder="false" />
    <g
   id="info"><circle
     cx="7.9999824"
     cy="8"
     r="8.0000114"
     style="fill:#858585;stroke-width:0.0490726"
     id="circle" /><g
     id="g7"
     transform="matrix(0,0.7,-1,0,89,-63.3)">
                
            </g><g
     id="g11"
     transform="matrix(0,0.2,-1,0,89,-16.8)">
                <path
   d="m 109,81 c 0,-0.552 -2.24,-1 -5,-1 -2.76,0 -5,0.448 -5,1 0,0.552 2.24,1 5,1 2.76,0 5,-0.448 5,-1 z m 40,0 c 0,-0.552 -2.24,-1 -5.0015,-1 h -24.997 C 116.24,80 114,80.448 114,81 c 0,0.552 2.24,1 5.0015,1 h 24.997 C 146.76,82 149,81.552 149,81 Z"
   style="fill:#ffffff"
   id="i" />
            </g></g>
</svg>