<?xml version="1.0" encoding="UTF-8" standalone="no"?>
<svg
   xmlns:dc="http://purl.org/dc/elements/1.1/"
   xmlns:cc="http://creativecommons.org/ns#"
   xmlns:rdf="http://www.w3.org/1999/02/22-rdf-syntax-ns#"
   xmlns:svg="http://www.w3.org/2000/svg"
   xmlns="http://www.w3.org/2000/svg"
   xmlns:sodipodi="http://sodipodi.sourceforge.net/DTD/sodipodi-0.dtd"
   xmlns:inkscape="http://www.inkscape.org/namespaces/inkscape"
   width="100%"
   height="100%"
   viewBox="0 0 32 32"
   version="1.1"
   xml:space="preserve"
   style="fill-rule:evenodd;clip-rule:evenodd;stroke-linejoin:round;stroke-miterlimit:2;"
   id="svg12"
   sodipodi:docname="modal-close.svg"
   inkscape:version="0.92.4 (5da689c313, 2019-01-14)"><metadata
   id="metadata18"><rdf:RDF><cc:Work
       rdf:about=""><dc:format>image/svg+xml</dc:format><dc:type
         rdf:resource="http://purl.org/dc/dcmitype/StillImage" /></cc:Work></rdf:RDF></metadata><defs
   id="defs16">
        
    
            
            
        
                
            </defs><sodipodi:namedview
   pagecolor="#ffffff"
   bordercolor="#666666"
   borderopacity="1"
   objecttolerance="10"
   gridtolerance="10"
   guidetolerance="10"
   inkscape:pageopacity="0"
   inkscape:pageshadow="2"
   inkscape:window-width="1920"
   inkscape:window-height="1027"
   id="namedview14"
   showgrid="false"
   inkscape:zoom="7.375"
   inkscape:cx="16"
   inkscape:cy="16"
   inkscape:window-x="-8"
   inkscape:window-y="-8"
   inkscape:window-maximized="1"
   inkscape:current-layer="svg12" />
    <g
   id="modal-close"><circle
     cx="15.999965"
     cy="16"
     r="16.000023"
     style="fill:#5551ff;stroke-width:0.0981452"
     id="circle" /><g
     id="x"
     transform="matrix(0.989168,0,0,0.989168,-94.7868,-112.5686)">
                <path
   inkscape:connector-curvature="0"
   id="path5"
   style="fill:#ffffff"
   d="m 112,127.148 -4.966,-4.967 c -0.391,-0.39 -1.024,-0.39 -1.415,0 l -1.414,1.415 c -0.39,0.39 -0.39,1.024 0,1.414 l 4.967,4.966 -4.967,4.967 c -0.39,0.39 -0.39,1.024 0,1.414 l 1.414,1.414 c 0.391,0.391 1.024,0.391 1.415,0 l 4.966,-4.966 4.966,4.966 c 0.391,0.391 1.024,0.391 1.415,0 l 1.414,-1.414 c 0.39,-0.39 0.39,-1.024 0,-1.414 l -4.967,-4.967 4.967,-4.966 c 0.39,-0.39 0.39,-1.024 0,-1.414 l -1.414,-1.415 c -0.391,-0.39 -1.024,-0.39 -1.415,0 z" />
            </g></g>
</svg>