<?xml version="1.0" encoding="UTF-8" standalone="no"?>
<svg
   xmlns:dc="http://purl.org/dc/elements/1.1/"
   xmlns:cc="http://creativecommons.org/ns#"
   xmlns:rdf="http://www.w3.org/1999/02/22-rdf-syntax-ns#"
   xmlns:svg="http://www.w3.org/2000/svg"
   xmlns="http://www.w3.org/2000/svg"
   xmlns:sodipodi="http://sodipodi.sourceforge.net/DTD/sodipodi-0.dtd"
   xmlns:inkscape="http://www.inkscape.org/namespaces/inkscape"
   width="100%"
   height="100%"
   viewBox="0 0 16 16"
   version="1.1"
   xml:space="preserve"
   style="fill-rule:evenodd;clip-rule:evenodd;stroke-linejoin:round;stroke-miterlimit:2;"
   id="svg20"
   sodipodi:docname="more-icon.svg"
   inkscape:version="0.92.4 (5da689c313, 2019-01-14)"><metadata
   id="metadata26"><rdf:RDF><cc:Work
       rdf:about=""><dc:format>image/svg+xml</dc:format><dc:type
         rdf:resource="http://purl.org/dc/dcmitype/StillImage" /></cc:Work></rdf:RDF></metadata><defs
   id="defs24">
        
    
            
            
            
            
        
                
            </defs><sodipodi:namedview
   pagecolor="#ffffff"
   bordercolor="#666666"
   borderopacity="1"
   objecttolerance="10"
   gridtolerance="10"
   guidetolerance="10"
   inkscape:pageopacity="0"
   inkscape:pageshadow="2"
   inkscape:window-width="640"
   inkscape:window-height="480"
   id="namedview22"
   showgrid="false"
   inkscape:zoom="14.75"
   inkscape:cx="8"
   inkscape:cy="8"
   inkscape:window-x="0"
   inkscape:window-y="0"
   inkscape:window-maximized="0"
   inkscape:current-layer="svg20" />
    <g
   transform="matrix(1.0872,0,0,1.0872,-105.126,-88.2033)"
   id="g15">
                <path
   id="circle13"
   style="fill:#858585"
   d="m 105.433,83.888 a 1.38,1.38 0 0 1 -1.38,1.38 1.38,1.38 0 0 1 -1.38,-1.38 1.38,1.38 0 0 1 1.38,-1.38 1.38,1.38 0 0 1 1.38,1.38 z m 0,4.598988 a 1.38,1.38 0 0 1 -1.38,1.38 1.38,1.38 0 0 1 -1.38,-1.38 1.38,1.38 0 0 1 1.38,-1.38 1.38,1.38 0 0 1 1.38,1.38 z m 0,4.59897 a 1.38,1.38 0 0 1 -1.38,1.38 1.38,1.38 0 0 1 -1.38,-1.38 1.38,1.38 0 0 1 1.38,-1.38 1.38,1.38 0 0 1 1.38,1.38 z" />
            </g>
</svg>