<?xml version="1.0" encoding="UTF-8" standalone="no"?>
<!DOCTYPE svg PUBLIC "-//W3C//DTD SVG 1.1//EN" "http://www.w3.org/Graphics/SVG/1.1/DTD/svg11.dtd">
<svg width="100%" height="100%" viewBox="0 0 16 16" version="1.1" xmlns="http://www.w3.org/2000/svg" xmlns:xlink="http://www.w3.org/1999/xlink" xml:space="preserve" xmlns:serif="http://www.serif.com/" style="fill-rule:evenodd;clip-rule:evenodd;stroke-linejoin:round;stroke-miterlimit:2;">
    <g transform="matrix(1,0,0,1,-122.976,-60)">
        <g id="DM-clone" transform="matrix(0.0490726,0,0,0.0490726,111.347,53.2782)">
            <g id="circle" transform="matrix(1,0,0,1,-832.39,5.62831)">
                <circle cx="1232.39" cy="294.372" r="163.024" style="fill:rgb(26,115,233);"/>
            </g>
            <g id="icon" transform="matrix(20.378,0,0,20.378,-2269.03,-1085.7)">
                <path d="M125.481,64L134.376,64C135.259,64 135.976,64.717 135.976,65.6L135.976,70.4C135.976,71.283 135.259,72 134.376,72L127.576,72C126.693,72 125.976,71.283 125.976,70.4L125.976,66.126L125.085,64.805C125.02,64.72 124.981,64.615 124.981,64.5C124.981,64.224 125.205,64 125.481,64ZM133.976,68.5C133.976,68.224 133.752,68 133.476,68L128.476,68C128.2,68 127.976,68.224 127.976,68.5C127.976,68.776 128.2,69 128.476,69L133.476,69C133.752,69 133.976,68.776 133.976,68.5ZM133.976,66.5C133.976,66.224 133.752,66 133.476,66L128.476,66C128.2,66 127.976,66.224 127.976,66.5C127.976,66.776 128.2,67 128.476,67L133.476,67C133.752,67 133.976,66.776 133.976,66.5Z" style="fill:white;"/>
            </g>
        </g>
    </g>
</svg>
