<?xml version="1.0" encoding="UTF-8" standalone="no"?>
<!DOCTYPE svg PUBLIC "-//W3C//DTD SVG 1.1//EN" "http://www.w3.org/Graphics/SVG/1.1/DTD/svg11.dtd">
<svg width="100%" height="100%" viewBox="0 0 16 16" version="1.1" xmlns="http://www.w3.org/2000/svg" xmlns:xlink="http://www.w3.org/1999/xlink" xml:space="preserve" xmlns:serif="http://www.serif.com/" style="fill-rule:evenodd;clip-rule:evenodd;stroke-linejoin:round;stroke-miterlimit:2;">
    <g transform="matrix(1,0,0,1,-70,-39)">
        <g id="USER">
            <g id="container" transform="matrix(0.888889,0,0,0.888889,7.77778,4.33333)">
                <rect x="70" y="39" width="18" height="18" style="fill:none;"/>
            </g>
            <g transform="matrix(0.447448,0,0,0.444054,-42.258,33.1297)">
                <path d="M265.313,38.368C264.833,38.022 264.342,37.579 263.864,37.012C262.801,35.751 262.105,34.429 261.651,33.269C261.649,33.293 261.647,33.306 261.647,33.306C261.647,33.306 261.125,33.229 260.435,32.769C259.744,32.308 259.177,31.357 258.962,29.853C258.757,28.417 259.266,27.442 260.649,27.077C260.281,20.51 263.186,18.212 263.186,18.212C266.993,15.174 268.671,16.671 269.56,15.472C269.656,16.203 269.468,16.644 269.236,16.907C270.12,16.832 272.201,16.905 274.458,18.855C276.46,20.586 276.858,24.325 276.853,27.07C278.257,27.429 278.774,28.407 278.567,29.853C278.352,31.357 277.785,32.308 277.094,32.769C276.403,33.229 275.882,33.306 275.882,33.306C275.882,33.306 275.88,33.293 275.878,33.269C275.424,34.429 274.728,35.751 273.665,37.012C273.186,37.581 272.695,38.025 272.217,38.371C272.286,38.862 272.455,39.463 272.803,40.167C273.432,41.444 275.385,41.514 277.548,42.221C279.028,42.704 282.987,43.341 284.298,46.118C284.62,46.726 284.226,46.991 283.272,46.991C282.99,46.991 272.15,46.997 268.764,46.999L267.764,46.999C264.528,46.997 254.537,46.991 254.257,46.991C253.303,46.991 252.909,46.726 253.231,46.118C254.542,43.341 258.501,42.704 259.981,42.221C262.144,41.514 264.096,41.444 264.726,40.167C265.075,39.461 265.244,38.859 265.313,38.368Z" style="fill:rgb(133,133,133);"/>
            </g>
        </g>
    </g>
</svg>
