<?xml version="1.0" encoding="UTF-8" standalone="no"?><!DOCTYPE svg PUBLIC "-//W3C//DTD SVG 1.1//EN" "http://www.w3.org/Graphics/SVG/1.1/DTD/svg11.dtd"><svg width="57px" height="68px" version="1.1" xmlns="http://www.w3.org/2000/svg" xmlns:xlink="http://www.w3.org/1999/xlink" xml:space="preserve" xmlns:serif="http://www.serif.com/" style="fill-rule:evenodd;clip-rule:evenodd;stroke-linejoin:round;stroke-miterlimit:2;"><g id="bag" transform="matrix(0.96871,0,0,0.96871,-139.526,-148.745)"><g transform="matrix(1,0,0,1,137.356,152.423)"><path d="M21.405,12.457C23.12,5.94 29.057,1.127 36.11,1.127C43.162,1.127 49.099,5.94 50.814,12.457L63.219,12.457C64.502,12.457 65.543,13.498 65.543,14.781L65.543,61C65.543,66.698 60.917,71.324 55.219,71.324L17,71.324C11.302,71.324 6.676,66.698 6.676,61L6.676,14.781C6.676,13.498 7.717,12.457 9,12.457L21.405,12.457ZM42.482,12.457C41.173,10.309 38.807,8.873 36.11,8.873C33.412,8.873 31.047,10.309 29.737,12.457L42.482,12.457Z" style="fill:white;"/></g><g transform="matrix(1,0,0,1,137.356,152.423)"><path d="M23.323,14.781C24.09,8.401 29.526,3.451 36.11,3.451C42.693,3.451 48.13,8.401 48.896,14.781L63.219,14.781L63.219,61C63.219,65.415 59.634,69 55.219,69L17,69C12.585,69 9,65.415 9,61L9,14.781L23.323,14.781ZM45.768,14.781C45.025,10.118 40.981,6.549 36.11,6.549C31.238,6.549 27.194,10.118 26.451,14.781L45.768,14.781Z" style="fill:rgb(246,133,31);"/></g><g id="pling" transform="matrix(0.311085,0,0,0.311085,-526.195,7.43907)"><path d="M2283.74,574.924C2281.54,557.507 2263.45,547.55 2247.05,550.159C2236.05,551.942 2225.12,554.004 2214.24,556.351C2216.14,564.295 2218.05,572.24 2219.96,580.185C2220.53,582.568 2220.82,583.759 2221.39,586.143C2226.64,607.991 2231.88,629.838 2237.13,651.686C2244.33,649.576 2251.57,647.607 2258.85,645.78C2256.55,633.963 2254.25,622.146 2251.95,610.329C2251.95,610.329 2255.82,609.508 2257.84,609.098C2273.31,605.956 2285.77,591.022 2283.74,574.924ZM2253.52,585.523C2251.05,585.978 2249.82,586.212 2247.36,586.695C2246.59,582.756 2245.83,578.817 2245.06,574.878C2247.58,574.406 2248.84,574.178 2251.36,573.735C2254.68,573.179 2258.11,575.207 2258.68,578.543C2259.25,581.829 2256.79,584.891 2253.52,585.523Z" style="fill:white;fill-rule:nonzero;"/></g></g></svg>