<?xml version="1.0" encoding="utf-8"?>
<!-- Svg Vector Icons : http://www.onlinewebfonts.com/icon -->
<!DOCTYPE svg PUBLIC "-//W3C//DTD SVG 1.1//EN" "http://www.w3.org/Graphics/SVG/1.1/DTD/svg11.dtd">
<svg version="1.1" xmlns="http://www.w3.org/2000/svg" xmlns:xlink="http://www.w3.org/1999/xlink" x="0px" y="0px" viewBox="0 0 1000 1000" enable-background="new 0 0 1000 1000" xml:space="preserve">
<metadata> Svg Vector Icons : http://www.onlinewebfonts.com/icon </metadata>
<g><path d="M65.7,37.8H10v924.3h957.7v-55.7h-902V37.8z"/><path d="M951,271.7c-21.5,0-39,17.4-39,39c0,9.6,3.6,18.3,9.4,25.1L594,663.1c-3.4-0.9-6.8-1.6-10.5-1.6c-4.4,0-8.5,0.9-12.4,2.2L382.9,475.5c3.6-5.9,5.7-12.7,5.7-20c0-21.5-17.4-39-39-39c-21.5,0-39,17.4-39,39c0,9.6,3.6,18.2,9.3,25L134.1,666.3c-5.5-3-11.7-4.8-18.4-4.8c-21.5,0-39,17.4-39,39c0,21.5,17.4,39,39,39c21.5,0,39-17.4,39-39c0-6.7-1.9-13-4.9-18.5l189.2-189.2c3.4,0.9,6.9,1.6,10.5,1.6c6,0,11.7-1.5,16.8-3.9l186.3,186.3c-5.1,6.6-8.2,14.7-8.2,23.7c0,21.5,17.4,39,39,39c21.5,0,39-17.4,39-39c0-9.6-3.6-18.2-9.3-25l327.4-327.4c3.3,0.9,6.8,1.6,10.4,1.6c21.5,0,39-17.4,39-39C990,289.1,972.6,271.7,951,271.7z"/></g>
</svg>