<?xml version="1.0" encoding="UTF-8" standalone="no"?>
<!DOCTYPE svg PUBLIC "-//W3C//DTD SVG 1.1//EN" "http://www.w3.org/Graphics/SVG/1.1/DTD/svg11.dtd">
<svg width="100%" height="100%" viewBox="0 0 16 16" version="1.1" xmlns="http://www.w3.org/2000/svg" xmlns:xlink="http://www.w3.org/1999/xlink" xml:space="preserve" xmlns:serif="http://www.serif.com/" style="fill-rule:evenodd;clip-rule:evenodd;stroke-linejoin:round;stroke-miterlimit:2;">
    <g transform="matrix(1,0,0,1,-175,-38.9873)">
        <g id="LINK-2">
            <g id="circle" transform="matrix(1,0,0,1,-1,-3.01269)">
                <path d="M184,42C188.415,42 192,45.585 192,50C192,54.415 188.415,58 184,58C179.585,58 176,54.415 176,50C176,45.585 179.585,42 184,42ZM184,44C187.311,44 190,46.689 190,50C190,53.311 187.311,56 184,56C180.689,56 178,53.311 178,50C178,46.689 180.689,44 184,44Z" style="fill:rgb(133,133,133);"/>
            </g>
            <path id="icon" d="M186.146,42.854L180.146,42.854C179.594,42.854 179.146,43.302 179.146,43.854C179.146,44.406 179.594,44.854 180.146,44.854L183.732,44.854L179.146,49.439C178.756,49.83 178.756,50.463 179.146,50.854C179.537,51.244 180.17,51.244 180.561,50.854L185.146,46.268L185.146,49.854C185.146,50.406 185.594,50.854 186.146,50.854C186.698,50.854 187.146,50.406 187.146,49.854L187.146,43.854L187.145,43.804L187.144,43.787C187.142,43.753 187.138,43.719 187.132,43.686L187.129,43.67C187.094,43.478 187.002,43.295 186.854,43.146C186.705,42.998 186.522,42.906 186.33,42.871L186.314,42.868C186.281,42.862 186.247,42.858 186.213,42.856L186.177,42.854L186.159,42.854C186.155,42.854 186.151,42.854 186.146,42.854Z" style="fill:rgb(133,133,133);"/>
        </g>
    </g>
</svg>
