<?xml version="1.0" encoding="UTF-8" standalone="no"?>
<!DOCTYPE svg PUBLIC "-//W3C//DTD SVG 1.1//EN" "http://www.w3.org/Graphics/SVG/1.1/DTD/svg11.dtd">
<svg width="100%" height="100%" viewBox="0 0 16 16" version="1.1" xmlns="http://www.w3.org/2000/svg" xmlns:xlink="http://www.w3.org/1999/xlink" xml:space="preserve" xmlns:serif="http://www.serif.com/" style="fill-rule:evenodd;clip-rule:evenodd;stroke-linejoin:round;stroke-miterlimit:2;">
    <g transform="matrix(1,0,0,1,-44,-77)">
        <g id="OPENCODE">
            <g id="container" transform="matrix(0.888889,0,0,0.888889,-18.2222,42.3333)">
                <rect x="70" y="39" width="18" height="18" style="fill:none;"/>
            </g>
            <g id="opencode" transform="matrix(1.18488,0,0,1.18488,-9.61365,-15.7146)">
                <path d="M47.534,86.162L47.138,89.621C47.138,89.621 52.726,93.814 57.921,88.744C57.973,88.692 57.916,88.618 57.843,88.677C51.931,93.495 47.534,86.162 47.534,86.162ZM54.775,89.04L57.969,87.652C57.969,87.652 58.806,80.716 51.818,78.753C51.747,78.734 51.711,78.821 51.799,78.854C58.928,81.565 54.775,89.04 54.775,89.04ZM53.746,81.244L50.948,79.172C50.948,79.172 44.522,81.915 46.316,88.949C46.334,89.02 46.428,89.007 46.413,88.914C45.196,81.386 53.746,81.244 53.746,81.244Z" style="fill:rgb(3,148,209);"/>
            </g>
        </g>
    </g>
</svg>
