<?xml version="1.0" encoding="UTF-8" standalone="no"?>
<!DOCTYPE svg PUBLIC "-//W3C//DTD SVG 1.1//EN" "http://www.w3.org/Graphics/SVG/1.1/DTD/svg11.dtd">
<svg width="100%" height="100%" viewBox="0 0 17 17" version="1.1" xmlns="http://www.w3.org/2000/svg" xmlns:xlink="http://www.w3.org/1999/xlink" xml:space="preserve" xmlns:serif="http://www.serif.com/" style="fill-rule:evenodd;clip-rule:evenodd;stroke-linejoin:round;stroke-miterlimit:2;">
    <g transform="matrix(1,0,0,1,-148.987,-38.9873)">
        <g id="LINK-1">
            <g id="container" transform="matrix(0.888889,0,0,0.888889,86.7778,4.33333)">
                <rect x="70" y="39" width="18" height="18" style="fill:none;"/>
            </g>
            <g transform="matrix(1.01782,0,0,1.01782,-2.79759,-0.837494)">
                <path d="M158.371,44.88C157.201,44.065 155.579,44.178 154.536,45.221C154.536,45.221 151.001,48.757 151.001,48.757C149.83,49.928 149.83,51.829 151.001,52.999C152.171,54.17 154.072,54.17 155.243,52.999C155.243,52.999 156.735,51.507 156.735,51.507C157.126,51.117 157.126,50.483 156.735,50.093C156.345,49.703 155.711,49.703 155.321,50.093L153.829,51.585C153.439,51.975 152.805,51.975 152.415,51.585C152.025,51.195 152.025,50.561 152.415,50.171C152.415,50.171 155.95,46.635 155.95,46.635C156.298,46.288 156.838,46.249 157.228,46.521C157.681,46.836 158.304,46.725 158.62,46.272C158.935,45.819 158.824,45.195 158.371,44.88ZM155.629,49.12C156.799,49.935 158.421,49.822 159.464,48.779C159.464,48.779 162.999,45.243 162.999,45.243C164.17,44.072 164.17,42.171 162.999,41.001C161.829,39.83 159.928,39.83 158.757,41.001C158.757,41.001 157.265,42.493 157.265,42.493C156.874,42.883 156.874,43.517 157.265,43.907C157.655,44.297 158.289,44.297 158.679,43.907L160.171,42.415C160.561,42.025 161.195,42.025 161.585,42.415C161.975,42.805 161.975,43.439 161.585,43.829C161.585,43.829 158.05,47.365 158.05,47.365C157.702,47.712 157.162,47.751 156.772,47.479C156.319,47.164 155.696,47.275 155.38,47.728C155.065,48.181 155.176,48.805 155.629,49.12Z" style="fill:rgb(133,133,133);"/>
            </g>
            <g transform="matrix(1,0,0,1,0.102892,-0.159259)">
                <path d="M164.575,44.862C164.793,45.59 164.91,46.361 164.91,47.159C164.91,51.582 161.319,55.172 156.897,55.172C156.023,55.172 155.182,55.032 154.394,54.773C154.951,54.578 155.474,54.258 155.919,53.813L156.569,53.163C156.678,53.169 156.787,53.172 156.897,53.172C160.216,53.172 162.91,50.478 162.91,47.159C162.91,47.049 162.907,46.94 162.901,46.831L163.813,45.919C164.131,45.601 164.385,45.244 164.575,44.862ZM149.248,49.549C149.012,48.794 148.884,47.992 148.884,47.159C148.884,42.737 152.475,39.147 156.897,39.147C157.656,39.147 158.391,39.252 159.088,39.45C158.725,39.637 158.385,39.883 158.081,40.187L157.117,41.151C157.044,41.148 156.971,41.147 156.897,41.147C153.579,41.147 150.884,43.841 150.884,47.159C150.884,47.233 150.886,47.306 150.888,47.379L150.187,48.081C149.757,48.511 149.444,49.013 149.248,49.549Z" style="fill:rgb(133,133,133);"/>
            </g>
        </g>
    </g>
</svg>
